<svg xmlns="http://www.w3.org/2000/svg" width="1em" height="1em" viewBox="0 0 24 24"><path fill="white" d="M8.973 20h6.015q.25 0 .424-.144t.25-.356l1.153-4.596H7.146L8.3 19.5q.077.212.25.356t.423.144m0 1q-.585 0-1.033-.348t-.603-.908l-1.222-4.84h11.731l-1.221 4.84q-.156.54-.604.898T14.988 21zm-3.28-7.096h12.615q.307 0 .5-.192T19 13.23v-1.712H5v1.712q0 .288.202.48q.202.193.49.193m6.289-5.789q0-2.038 1.548-3.47t3.606-1.626q-.212 1.885-1.502 3.285t-3.152 1.77v2.445H20v2.712q0 .69-.501 1.182q-.5.49-1.191.49H5.692q-.69 0-1.191-.49Q4 13.92 4 13.23v-2.712h7.48V8.073q-1.86-.37-3.151-1.76T6.827 3.02q2.038.193 3.596 1.635t1.558 3.461"/></svg>